<svg xmlns="http://www.w3.org/2000/svg" viewBox="0 0 168.87 149.87"><defs><style>.cls-1{fill:#ba89e0;}.cls-1,.cls-2,.cls-3,.cls-4,.cls-5{stroke:#3c0db0;stroke-linecap:round;stroke-linejoin:round;stroke-width:3px;}.cls-2{fill:none;}.cls-3{fill:#633dbe;}.cls-4{fill:#cba6e8;}.cls-5{fill:#4db975;}</style></defs><g id="asssets"><path class="cls-1" d="M-1027.74,2144.37c3.09-9.31,5.26-19.27,3.46-28.92s-8.35-18.91-17.81-21.53a33.83,33.83,0,0,0-9.94-.89c-20.76.55-28,20-26,38,1,9.33,4,18.26,6.75,27.18s5.45,18.3,11.2,25.84c8.07,10.58,16.62-6.48,20.11-12.54A146.86,146.86,0,0,0-1027.74,2144.37Z" transform="translate(1127.72 -2091.5)"/><path class="cls-2" d="M-1052.1,2157c-2.94-3.35-6.66-5.2-10-6.85-3.92-2-8.38-2.9-12.74-3.8" transform="translate(1127.72 -2091.5)"/><path class="cls-2" d="M-1030.6,2151.78a27.47,27.47,0,0,0-21,5.64" transform="translate(1127.72 -2091.5)"/><path class="cls-2" d="M-1026,2134.86a50.13,50.13,0,0,0-7.5,1.14,42.22,42.22,0,0,0-17.46,8.41" transform="translate(1127.72 -2091.5)"/><path class="cls-2" d="M-1051.94,2143.49a32.78,32.78,0,0,0-25-14.67" transform="translate(1127.72 -2091.5)"/><path class="cls-2" d="M-1043.75,2094.21c-8.86,29.72-8.34,61.05-8.9,91.75" transform="translate(1127.72 -2091.5)"/><path class="cls-2" d="M-1050,2125.33c-5-10.22-11.74-18.46-21.86-21.15" transform="translate(1127.72 -2091.5)"/><path class="cls-2" d="M-1024.33,2115.12c-7.22-.77-17.48-.43-25.43,8.69" transform="translate(1127.72 -2091.5)"/><path class="cls-2" d="M-1051.81,2174.1a15.8,15.8,0,0,1,6-3.87,46.92,46.92,0,0,1,6.92-1.91" transform="translate(1127.72 -2091.5)"/><path class="cls-2" d="M-1052.35,2173.53a25.93,25.93,0,0,0-6.71-5,16.64,16.64,0,0,0-8.09-1.83" transform="translate(1127.72 -2091.5)"/><path class="cls-3" d="M-1050,2237.4c11.51,4.35,24.67,3.34,35-6.13,21.5-19.66,16.92-54.53-10.5-66.85a30.75,30.75,0,0,0-14.86-2.66c-16.28,1.19-34.33,17.72-36.31,35.06C-1078.7,2215.12-1065.9,2231.39-1050,2237.4Z" transform="translate(1127.72 -2091.5)"/><path class="cls-4" d="M-1097.51,2174.71c-8.82-4.3-17.46-9.7-23.11-17.73s-7.7-19.19-3-27.78a33.46,33.46,0,0,1,6.3-7.74c14.9-14.47,33.82-6.07,45.36,8,6,7.25,10.29,15.6,14.72,23.82s9.3,16.67,10.68,26.07c1.93,13.15-16.25,7.36-23,5.63A148.08,148.08,0,0,1-1097.51,2174.71Z" transform="translate(1127.72 -2091.5)"/><path class="cls-2" d="M-1071.43,2166.12c-.35-4.45.93-8.41,2-11.91,1.33-4.18,3.77-8,6.17-11.77" transform="translate(1127.72 -2091.5)"/><path class="cls-2" d="M-1090.21,2177.83a27.46,27.46,0,0,1,18.7-11.08" transform="translate(1127.72 -2091.5)"/><path class="cls-2" d="M-1105.53,2169.31a48.08,48.08,0,0,1,6.06-4.57,42.19,42.19,0,0,1,18.21-6.63" transform="translate(1127.72 -2091.5)"/><path class="cls-2" d="M-1081.24,2156.77a32.82,32.82,0,0,1,7-28.12" transform="translate(1127.72 -2091.5)"/><path class="cls-2" d="M-1122.22,2128.21c27.45,14.42,49.51,36.68,71.87,57.72" transform="translate(1127.72 -2091.5)"/><path class="cls-2" d="M-1095.61,2145.5c-3.84-10.7-5-21.3.14-30.43" transform="translate(1127.72 -2091.5)"/><path class="cls-2" d="M-1120.83,2156.71c4.5-5.71,11.91-12.81,24-12.13" transform="translate(1127.72 -2091.5)"/><path class="cls-2" d="M-1059.42,2178.24a15.86,15.86,0,0,0-6.95,1.59,47,47,0,0,0-6.21,3.62" transform="translate(1127.72 -2091.5)"/><path class="cls-2" d="M-1059.45,2177.46a26,26,0,0,1,1.13-8.27,16.61,16.61,0,0,1,4.34-7.07" transform="translate(1127.72 -2091.5)"/><path class="cls-2" d="M-1017.37,2208.29c13.87-10.74,38.9-20.07,51.15-11.45a14.51,14.51,0,0,1,5.87,11.34c.16,3.45-2.79,10.38-6.73,11.65" transform="translate(1127.72 -2091.5)"/><path class="cls-5" d="M-962.2,2222.31l0,.25c-.84,6.3-9.47,5-10.59-.6a5.75,5.75,0,0,1,3.38-6.29C-965,2213.91-961.78,2218.07-962.2,2222.31Z" transform="translate(1127.72 -2091.5)"/><path class="cls-2" d="M-1020.62,2202.93c9.8-5,19.57-10.19,28.4-16.76,5.12-3.81,10.06-8.31,12.44-14.24a14.12,14.12,0,0,0,1.06-7.39,8.65,8.65,0,0,0-3.92-6.17c-2.67-1.58-6.16-1.23-8.89.23a19.42,19.42,0,0,0-6.54,6.46" transform="translate(1127.72 -2091.5)"/><path class="cls-5" d="M-1002.56,2159.17c2.42-1.6,5.61-2.23,7.67-.48,3.72,3.14,1.14,9.14-2.44,10.27C-1002.91,2170.72-1007.62,2162.52-1002.56,2159.17Z" transform="translate(1127.72 -2091.5)"/></g></svg>