<svg xmlns="http://www.w3.org/2000/svg" viewBox="0 0 147.22 177.42"><defs><style>.cls-1{fill:#ba89e0;}.cls-1,.cls-2,.cls-3,.cls-4,.cls-5{stroke:#3c0db0;stroke-linecap:round;stroke-linejoin:round;stroke-width:3px;}.cls-2{fill:none;}.cls-3{fill:#633dbe;}.cls-4{fill:#cba6e8;}.cls-5{fill:#4db975;}</style></defs><g id="asssets"><path class="cls-1" d="M-730.73,2159.05c9.66-1.72,19.83-2.44,29.12.73s17.52,11,18.74,20.72a33.7,33.7,0,0,1-.54,10c-3.53,20.47-23.77,24.81-41.37,20.24-9.08-2.36-17.5-6.55-25.92-10.58s-17.33-8-24-14.8c-9.3-9.5,8.8-15.51,15.3-18.1A147.51,147.51,0,0,1-730.73,2159.05Z" transform="translate(828.41 -2081.49)"/><path class="cls-2" d="M-746.76,2181.34c2.9,3.39,4.2,7.34,5.35,10.83,1.38,4.17,1.67,8.71,1.93,13.15" transform="translate(828.41 -2081.49)"/><path class="cls-2" d="M-738.47,2160.82a27.47,27.47,0,0,1-8.6,20" transform="translate(828.41 -2081.49)"/><path class="cls-2" d="M-721.07,2158.69a49.81,49.81,0,0,1-2.21,7.26A42.08,42.08,0,0,1-734.11,2182" transform="translate(828.41 -2081.49)"/><path class="cls-2" d="M-733.33,2183.13A32.78,32.78,0,0,1-722.4,2210" transform="translate(828.41 -2081.49)"/><path class="cls-2" d="M-683.39,2182.09c-30.68,4.51-61.61-.51-92.07-4.36" transform="translate(828.41 -2081.49)"/><path class="cls-2" d="M-715.08,2183.78c9.41,6.39,16.58,14.28,17.8,24.68" transform="translate(828.41 -2081.49)"/><path class="cls-2" d="M-701.29,2159.88c-.28,7.26-2.08,17.36-12.25,23.92" transform="translate(828.41 -2081.49)"/><path class="cls-2" d="M-763.6,2178.61a16,16,0,0,0,4.68-5.38,46.54,46.54,0,0,0,2.89-6.58" transform="translate(828.41 -2081.49)"/><path class="cls-2" d="M-763.12,2179.22a25.94,25.94,0,0,1,4,7.36,16.6,16.6,0,0,1,.64,8.27" transform="translate(828.41 -2081.49)"/><path class="cls-3" d="M-826,2167.69c-2.65-12,.24-24.89,11.1-33.78,22.54-18.46,56.39-8.91,64.65,20a30.84,30.84,0,0,1,.5,15.09c-3.52,15.94-22.46,31.42-39.91,30.89C-808.06,2199.33-822.33,2184.32-826,2167.69Z" transform="translate(828.41 -2081.49)"/><path class="cls-4" d="M-770.77,2223.74c3,9.35,7.09,18.68,14.23,25.42s17.88,10.38,27.07,6.92a34,34,0,0,0,8.56-5.12c16.46-12.67,10.86-32.6-1.39-46-6.32-6.93-14-12.42-21.45-18s-15.17-11.59-24.27-14.31c-12.74-3.8-9.62,15-8.88,22A147.83,147.83,0,0,0-770.77,2223.74Z" transform="translate(828.41 -2081.49)"/><path class="cls-2" d="M-758.53,2199.17c4.35,1,8.46.29,12.08-.32,4.33-.72,8.48-2.58,12.53-4.42" transform="translate(828.41 -2081.49)"/><path class="cls-2" d="M-772.81,2216.07a27.41,27.41,0,0,0,13.64-16.91" transform="translate(828.41 -2081.49)"/><path class="cls-2" d="M-766.58,2232.46a49.42,49.42,0,0,0,5.39-5.34A42.06,42.06,0,0,0-752,2210" transform="translate(828.41 -2081.49)"/><path class="cls-2" d="M-750.68,2210.22a32.83,32.83,0,0,0,28.83-2.84" transform="translate(828.41 -2081.49)"/><path class="cls-2" d="M-728.3,2254.88c-10.33-29.25-29.19-54.27-46.81-79.42" transform="translate(828.41 -2081.49)"/><path class="cls-2" d="M-741.59,2226.06c10,5.34,20.36,8,30.13,4.23" transform="translate(828.41 -2081.49)"/><path class="cls-2" d="M-756.31,2249.4c6.3-3.63,14.39-9.94,15.45-22" transform="translate(828.41 -2081.49)"/><path class="cls-2" d="M-768.8,2185.55a15.87,15.87,0,0,1-2.57,6.65,49.2,49.2,0,0,1-4.47,5.62" transform="translate(828.41 -2081.49)"/><path class="cls-2" d="M-768,2185.68a25.71,25.71,0,0,0,8.35.08,16.61,16.61,0,0,0,7.62-3.29" transform="translate(828.41 -2081.49)"/><path class="cls-2" d="M-792.5,2139.61c12.62-12.18,25.45-35.61,18.67-49a14.47,14.47,0,0,0-10.37-7.43c-3.4-.65-10.67,1.27-12.5,5" transform="translate(828.41 -2081.49)"/><path class="cls-5" d="M-798.45,2083h-.26c-6.35-.07-6.28,8.67-.92,10.57a5.75,5.75,0,0,0,6.71-2.44C-790.55,2087-794.2,2083.2-798.45,2083Z" transform="translate(828.41 -2081.49)"/><path class="cls-2" d="M-787.66,2143.6c6.37-9,12.89-17.91,20.66-25.7,4.51-4.52,9.67-8.77,15.88-10.27a14.2,14.2,0,0,1,7.46,0,8.7,8.7,0,0,1,5.55,4.77c1.18,2.87.34,6.27-1.5,8.76a19.47,19.47,0,0,1-7.34,5.55" transform="translate(828.41 -2081.49)"/><path class="cls-5" d="M-741.76,2132c1.93-2.16,3-5.23,1.58-7.52-2.58-4.13-8.89-2.44-10.52.94C-753.24,2130.7-745.8,2136.53-741.76,2132Z" transform="translate(828.41 -2081.49)"/></g></svg>