<svg xmlns="http://www.w3.org/2000/svg" viewBox="0 0 173.74 148.65"><defs><style>.cls-1{fill:#ba89e0;}.cls-1,.cls-2,.cls-3,.cls-4,.cls-5{stroke:#3c0db0;stroke-linecap:round;stroke-linejoin:round;stroke-width:3px;}.cls-2{fill:none;}.cls-3{fill:#633dbe;}.cls-4{fill:#cba6e8;}.cls-5{fill:#4db975;}</style></defs><g id="asssets"><path class="cls-1" d="M-486.28,2138.21c-2.37-9.52-3.77-19.62-1.23-29.1s9.77-18.22,19.41-20.1a33.7,33.7,0,0,1,10-.13c20.65,2.15,26.35,22,23,39.92-1.74,9.21-5.36,17.9-8.82,26.57s-6.83,17.83-13.15,24.91c-8.85,9.93-16.07-7.73-19.09-14A147.59,147.59,0,0,1-486.28,2138.21Z" transform="translate(559.91 -2087.08)"/><path class="cls-2" d="M-463,2152.7c3.19-3.11,7-4.68,10.45-6.06,4.06-1.66,8.57-2.25,13-2.81" transform="translate(559.91 -2087.08)"/><path class="cls-2" d="M-484,2145.81a27.48,27.48,0,0,1,20.49,7.24" transform="translate(559.91 -2087.08)"/><path class="cls-2" d="M-487.29,2128.6a49.19,49.19,0,0,1,7.39,1.71,42.13,42.13,0,0,1,16.77,9.72" transform="translate(559.91 -2087.08)"/><path class="cls-2" d="M-462.09,2139.18a32.83,32.83,0,0,1,26-12.71" transform="translate(559.91 -2087.08)"/><path class="cls-2" d="M-466.48,2089.42c6.56,30.32,3.64,61.51,1.84,92.17" transform="translate(559.91 -2087.08)"/><path class="cls-2" d="M-462.66,2120.93c5.74-9.81,13.13-17.5,23.42-19.41" transform="translate(559.91 -2087.08)"/><path class="cls-2" d="M-487.44,2108.78c7.26-.21,17.46.91,24.69,10.62" transform="translate(559.91 -2087.08)"/><path class="cls-2" d="M-464.56,2169.69a16,16,0,0,0-5.68-4.31,46.94,46.94,0,0,0-6.76-2.44" transform="translate(559.91 -2087.08)"/><path class="cls-2" d="M-464,2169.17a25.69,25.69,0,0,1,7.07-4.44,16.52,16.52,0,0,1,8.21-1.2" transform="translate(559.91 -2087.08)"/><path class="cls-3" d="M-471.26,2232.67c-11.82,3.45-24.85,1.44-34.45-8.8-19.93-21.25-12.69-55.66,15.59-65.85a30.86,30.86,0,0,1,15-1.51c16.14,2.44,32.86,20.3,33.51,37.74C-440.9,2212.66-454.91,2227.9-471.26,2232.67Z" transform="translate(559.91 -2087.08)"/><path class="cls-4" d="M-419,2173.81c9.13-3.61,18.16-8.33,24.4-15.91s9.16-18.53,5.09-27.47a33.73,33.73,0,0,0-5.69-8.2c-13.74-15.57-33.25-8.64-45.83,4.49-6.49,6.77-11.46,14.76-16.51,22.61s-10.55,15.91-12.65,25.17c-2.93,13,15.64,8.59,22.52,7.38A147.72,147.72,0,0,0-419,2173.81Z" transform="translate(559.91 -2087.08)"/><path class="cls-2" d="M-444.39,2163.25c.69-4.41-.28-8.46-1.13-12-1-4.27-3.15-8.29-5.25-12.21" transform="translate(559.91 -2087.08)"/><path class="cls-2" d="M-426.56,2176.36a27.5,27.5,0,0,0-17.8-12.48" transform="translate(559.91 -2087.08)"/><path class="cls-2" d="M-410.63,2169a51.2,51.2,0,0,0-5.69-5,42.14,42.14,0,0,0-17.66-8" transform="translate(559.91 -2087.08)"/><path class="cls-2" d="M-433.89,2154.68a32.84,32.84,0,0,0-4.78-28.58" transform="translate(559.91 -2087.08)"/><path class="cls-2" d="M-390.84,2129.34c-28.48,12.28-52.18,32.77-76.09,52" transform="translate(559.91 -2087.08)"/><path class="cls-2" d="M-418.7,2144.54c4.65-10.37,6.62-20.85,2.19-30.35" transform="translate(559.91 -2087.08)"/><path class="cls-2" d="M-394.42,2157.65c-4-6-10.88-13.68-23-13.93" transform="translate(559.91 -2087.08)"/><path class="cls-2" d="M-457.29,2174.41a15.91,15.91,0,0,1,6.81,2.12,46.69,46.69,0,0,1,5.91,4.08" transform="translate(559.91 -2087.08)"/><path class="cls-2" d="M-457.2,2173.64a26.23,26.23,0,0,0-.49-8.34,16.56,16.56,0,0,0-3.8-7.38" transform="translate(559.91 -2087.08)"/><path class="cls-2" d="M-501.53,2201.14c-13-11.76-37.24-23-50.12-15.33a14.5,14.5,0,0,0-6.72,10.85c-.42,3.43,2,10.56,5.82,12.13" transform="translate(559.91 -2087.08)"/><path class="cls-5" d="M-557.61,2210.89a2.35,2.35,0,0,0,0,.26c.35,6.33,9.06,5.68,10.61.21a5.77,5.77,0,0,0-2.89-6.54C-554.15,2202.73-557.7,2206.64-557.61,2210.89Z" transform="translate(559.91 -2087.08)"/><path class="cls-2" d="M-497.87,2196.05c-9.39-5.75-18.74-11.66-27-18.89-4.81-4.19-9.39-9.06-11.31-15.15a14.22,14.22,0,0,1-.49-7.45,8.7,8.7,0,0,1,4.39-5.85c2.78-1.37,6.23-.76,8.84.91a19.39,19.39,0,0,1,6,7" transform="translate(559.91 -2087.08)"/><path class="cls-5" d="M-512.52,2151c-2.29-1.78-5.43-2.65-7.61-1.07-4,2.85-1.84,9,1.64,10.43C-513.06,2162.58-507.74,2154.76-512.52,2151Z" transform="translate(559.91 -2087.08)"/></g></svg>