<svg xmlns="http://www.w3.org/2000/svg" viewBox="0 0 2939.37 2082.88"><defs><style>.cls-1{fill:none;stroke:#c5e4ff;stroke-linecap:round;stroke-linejoin:round;stroke-width:8px;}</style></defs><g id="asssets"><path class="cls-1" d="M-2456.84,156.31c70.07,30.6,140.21,65.15,199.58,113.33,88.6,71.91,438.3,419.86,485.46,865-42.38-15-849.52-48.23-1413.32,287.88" transform="translate(3189.12 -152.31)"/><path class="cls-1" d="M-2269,257.25c93.63,47.08,196.37,73.93,299.89,87.89,257.2,34.68,519.05-5.73,773.15-45.86-1.71-1,.91-3.79,2.61-2.75s1.84,3.41,1.81,5.4c-1.08,79.05,38,155,93.66,211.12s126.65,94.66,199.43,125.52c29.26,12.4,57.93,19.76,89.28,25C-861.33,705-938.59,801.38-934.3,893.38c3.85,82.52,37.65,140.54,88,169.1-100.38,48.72-159.24,130.28-171.59,241.83-10.73,97,11.2,203,65.84,284.49-128.93-48.07-279.3,61.91-338.18,173-37.57,70.88-54.61,151.13-74.23,228.26-.4-6.28-6.7-10.28-12.33-13.09-78.24-39-170-50.25-255.3-31.36s-163.74,67.79-218.23,136.14c-12.38,15.54-19.69,34.56-27.22,52.94-46.82-92.3-138.6-162.61-238.18-190.81s-213.13-7.87-292.75,58.25c-12.7,10.54-25.09,24.51-31.79,39.6-15.22-111.68-60.1-219.38-113.29-318-96-177.93-238.39-364-452.24-394.68a1155.17,1155.17,0,0,0,94-76.69,598.52,598.52,0,0,0,123.19-159.21c47.89-89.45,73.73-190.84,73.62-292.35-.11-90.69-16.25-200.07-86.13-265l-3.21-1.42c46.79-4.48,93.78-6.91,140.45-12.67,160.63-19.81,333.68-74,389.83-266.25" transform="translate(3189.12 -152.31)"/><path class="cls-1" d="M-389,610.74c-412.91-12.84-1093.81,247.4-1382.8,523.91-247.81-298-740.1-548.54-1164.53-632.89" transform="translate(3189.12 -152.31)"/><path class="cls-1" d="M-1039.45,731.42c-86.8,59.7-149.24,224.63-66.51,343.36-53.7,13.38-93.54,62.62-110.17,115.41-26.69,84.69-4.9,187,53.44,253.92-38.84,2.1-73.42,14.4-105.17,43-88.48,79.54-120.38,206.18-130.93,320.17-41-21.16-82.33-43.33-128.55-49.74-64.22-8.91-134.16,2.66-191.47,33.33-50.67,27.11-88.75,70.61-121.3,117.08-34.69-122.26-194.82-202-311.81-191.35-70.41,6.42-136.72,36.84-193.09,78.59-16-85.79-25.14-173.15-57.54-254.89-62.11-156.72-190-282.25-364.33-296.65,29.62-19.54,88.93-70.23,112.76-91.79,89.55-81,162.5-185.45,191.4-304,16-65.61,16.28-137.89-17.25-198.34,37.6,0,163.19,6.92,271.73-71.45,46.84-33.81,89.21-94.36,103.9-149.9,70.15,39.3,152.23,50.63,231,66.59,251.55,50.95,495.41-45.21,515.7-58.61-18.11,78.28,7.92,150.23,65.84,198.17,63.08,52.21,170.64,105.52,255.21,97.05" transform="translate(3189.12 -152.31)"/><path class="cls-1" d="M-1952.81,956.47c11,32.42,5.27,65.2-7.24,97-15.9,40.48-51.45,59.94-72.09,75.57,33.06,19,51,58.91,50,97-.58,21.68-4.14,46.09-11.74,66.4,1.35-3.62,24-6.51,28.19-7.24a201.53,201.53,0,0,1,34.15-3,199.38,199.38,0,0,1,66.3,10.94c41.13,14.39,80.72,45,87.31,90.65-.68-4.7,11-18.06,14-22a95.25,95.25,0,0,1,13.32-14.63,150.82,150.82,0,0,1,56.62-31.36,126.4,126.4,0,0,1,32.84-5.54c5.21-.12,28-.59,30.91,4.65-10.19-18.47-9.33-49.62.69-68.18s29-26.71,50.07-28.34c-30.17-46.16,21-104.41,20.23-102.73a160.32,160.32,0,0,1-25.29-7.09c-16.09-6-31-17.83-37.12-34.66-8.09-22.19-3.17-43,8-63-19.53.89-49.37-9.59-63.09-22.77-14.73-14.15-27.42-33.95-25.46-54.29-12,13.19-41.08,22.74-58.89,21.48-26.73-1.89-51-21.91-57.46-33.36-11.52,20.54-36.22,40.93-59.51,44.35-29.38,4.31-64.26-3.77-74.77-9.88" transform="translate(3189.12 -152.31)"/><path class="cls-1" d="M-1933.64,1124.86c12.52-1.24,24.27-7.52,33.15-16.43s15-20.29,18.81-32.29c6-19.11,7.76-42.77-3.13-59.59a58.56,58.56,0,0,0,22.12,6.4c27.1,1.39,50.79-14.88,62-39.6,4.08,6.37,11.57,14.56,20.63,17.62,25.19,8.5,46.79-1.9,52.28-4,.46,11.18,0,23,7.14,32.31,8.44,11,23.54,16.19,36.79,18.21,3.13.47,14.46,2.86,17,.7-7.69,11.46-12.28,21.52-12.89,33.67-.81,16.16,5.13,35.84,22.9,41.55-4.66,2.74-14.61,15.31-14.17,26.33.49,12.1,6.6,24.72,14.87,34.62-.89-1.07-20,8.52-26.1,20.74-7.1,14.15-1.36,32.6,1.41,42.66-15.06-9.26-33.4-13.8-50.76-10.47s-32.93,14.66-39.35,31.13c-9.91-23-27.21-42.26-49.75-53.19s-48.57-12.82-72.76-6.36a69,69,0,0,0-4.92-49.25c-7.65-15-19.43-28.82-35.24-34.73" transform="translate(3189.12 -152.31)"/><path class="cls-1" d="M-1431.48,1101.79c-20.09,16.81-32.42,41.64-37.58,67.33-6.86,34.16-6.23,77.93,11.7,108.77-33,12.66-61.62,34.93-77.63,66.41s-21.5,68.06-12.31,102.16c-31.26-14.37-80-31.12-124.42-18.14-63.86,18.66-89.2,52.84-116.57,90.1-45.62-74.59-102-132.18-188.84-142.31-32.84-3.82-87.4-2.2-114.19,17.18l-.81,1.31c10.73-49.23-.18-108.75-20.68-153.76s-53.58-80.79-98.67-101.14c52.62-16.61,102-49.09,134.5-93.67s51.79-109.75,29.65-160.29c48.5,2.08,102.1-7.27,138.66-41.09,19-17.54,34-40.93,35-66.75,14.19,16.46,36,24.19,57.17,28.9,49.4,11,86,12.83,134.46-1.7,18.88-5.67,45.72-15.59,65.14-34,1,39.25,23.56,74.74,54,99.48s68.86,38.25,107.63,44.5c-24.6,26-39.33,62.36-35,97.9a124.08,124.08,0,0,0,55.2,88.1" transform="translate(3189.12 -152.31)"/><path class="cls-1" d="M-1806.08,1682.91c50-84.46,151.58-136,248.78-131.25,27.4,1.35,55,7.76,76.81,24.38-21.83-16.62-49.41-23-76.81-24.38-97.2-4.77-198.82,46.79-248.78,131.25-25.68-54.64-81-91-135.79-116.22-27.92-12.85-57.11-23.28-87.36-28.67-66.38-11.81-137.8,1-195,36.75,15.67-53.45,9.22-110.8-10-163.06s-51.76-98.87-89.39-139.94c-39.38-43-83.7-77-136.94-100.74C-2347,1105.76-2267.46,988.77-2241,860.44c6.67-32.41,9.77-66.6,0-98.22,1.44,4.68,29.74,7.79,34.43,8.43a180.84,180.84,0,0,0,40.21.77c24.8-2.24,49-9.31,71.59-19.65,33.8-15.47,64.8-37.84,89-66.12,4.31-5,48.25-64.56,41.54-68.61,93.79,56.61,210.15,87.55,314.32,53.64,45.8-14.9,141-61.94,141-61.94l1,3.7c8.32,54.2,27.23,116.49,67.1,154.13a250.72,250.72,0,0,0,147.09,66.7c-48.48,76.26-52.21,174.94-14.5,257.06-16.84,17.44-41.52,52.93-49,77.57-18.84,61.91-10.52,119.7,19.57,177-50.41,5.55-96.74,40.15-122.28,84s-31.55,97.69-20.52,147.19" transform="translate(3189.12 -152.31)"/><path class="cls-1" d="M-253.75,1106c-506.75-83.88-932-25.84-1518,28.61,7.81,186.08-47,809-131.86,1096.54" transform="translate(3189.12 -152.31)"/><path class="cls-1" d="M-1325.44,2218.81c-32.69-177.88-51.52-367.62-112.16-538.86-71.94-203.19-195-382.43-334.2-545.3,723.94,296.92,1129.49,693.71,1272.95,874.07l-101.36-113" transform="translate(3189.12 -152.31)"/><path class="cls-1" d="M-2459.91,2124.07c13.7-73.18,37-145.87,63.39-215.39,52.15-137.38,123.28-268.82,207.78-388.92,109.39-155.47,247.23-296.19,416.94-385.11,78.51-337.17,416.42-767.53,614-856.17,128.68-57.73,237.25-72.72,323.31-90.87l-156.77,27.64C-833.63,586.82-574.6,619.68-574.6,619.68c-54.1,33.86-88.1,93.27-104.89,154.84-14.74,54-17.66,112-2.42,165.85s88.31,129.73,88.31,129.73c-18.62,11.29-37.17,28.07-53.15,42.87-156.09,144.61-199.82,378.9-128.4,574.69,3.89,10.68,20.18,69.36,30.44,72.22,0,0-147.1-41-291,32.67-141.92,72.68-234.53,227.71-295.78,377.79" transform="translate(3189.12 -152.31)"/></g></svg>