<svg xmlns="http://www.w3.org/2000/svg" viewBox="0 0 1920 1080"><defs><style>.cls-1,.cls-3{fill:none;}.cls-2{fill:#c5e4ff;}.cls-3{stroke:#c5e4ff;stroke-linecap:round;stroke-linejoin:round;stroke-width:0;}</style></defs><g id="asssets"><path class="cls-1" d="M-1607.24,1136.4a60.47,60.47,0,0,1,25.47-11.39,65.55,65.55,0,0,1,12.39-1.17,76,76,0,0,1,26.54,5q-35.92-46.45-74-91.16c.23,8.92.35,18.64.35,29.11,0,23.49-.58,50.72-1.73,81A54.18,54.18,0,0,1-1607.24,1136.4Z" transform="translate(2322.98 -885.43)"/><path class="cls-1" d="M-1526.77,1084.24a68.2,68.2,0,0,1,10.2-7.66c.44-.27.85-.52,1.27-.76q-45.18-20-92.16-39.5,35.32,41.79,69,85.08a63.91,63.91,0,0,1-.62-8.61,39.49,39.49,0,0,1,3.84-17.85A38.71,38.71,0,0,1-1526.77,1084.24Z" transform="translate(2322.98 -885.43)"/><path class="cls-1" d="M-1482.44,1136.54a53.55,53.55,0,0,1,22.56-22.16,70.27,70.27,0,0,1,16.3-6q-30.69-14.28-62.26-28.35c-.29.1-.7.27-1.19.49a46.42,46.42,0,0,0-4.51,2.38,59.05,59.05,0,0,0-11.16,8.54,28.61,28.61,0,0,0-5.39,7.11,31.58,31.58,0,0,0-3,14.26,66.61,66.61,0,0,0,1.65,13.81c.77,3.57,1.68,6.89,2.49,9.77q18.8,24.64,36.9,49.8a91,91,0,0,1-.81-12.17,93.3,93.3,0,0,1,2.11-19.86A68.06,68.06,0,0,1-1482.44,1136.54Z" transform="translate(2322.98 -885.43)"/><path class="cls-1" d="M-1616.5,1251.1a100.39,100.39,0,0,1,13.88-15.24,154.86,154.86,0,0,1,58.13-32.19,130.77,130.77,0,0,1,33.89-5.7c1.09,0,3-.07,5.32-.07,2.71,0,6,.06,9.4.26,1.63.1,3.27.23,4.88.41q-20-28.1-40.94-55.55l-.41-.21c-11.15-6.86-24.19-11-37-11a57.6,57.6,0,0,0-10.88,1,52.5,52.5,0,0,0-22.08,9.87,44.1,44.1,0,0,0-14.3,18.78,4,4,0,0,1-2.19,2.23c-1.28,29.94-3.06,62.53-5.32,97.12,2.3-3.09,4.68-6,6.29-8C-1617.28,1252.12-1616.81,1251.52-1616.5,1251.1Z" transform="translate(2322.98 -885.43)"/><path class="cls-1" d="M-1456.14,1121.45a45.52,45.52,0,0,0-19.26,18.89,60.28,60.28,0,0,0-5.53,15.52,85.22,85.22,0,0,0-1.92,18.14,79.56,79.56,0,0,0,1.69,16.61,51.87,51.87,0,0,0,5.05,14.07l0,.11a4.78,4.78,0,0,1,.26.62,3.78,3.78,0,0,1,.17,1q37.39,53.36,71,109.16-.49-5.8-.5-11.61a154.91,154.91,0,0,1,17.19-69.85,132,132,0,0,1,33.46-41.52,160.47,160.47,0,0,1,37-22.93q-55.08-28-113.35-55.39A69.12,69.12,0,0,0-1456.14,1121.45Z" transform="translate(2322.98 -885.43)"/><path class="cls-1" d="M-1818,1173.37l2.27-.36a204.41,204.41,0,0,1,34.83-3.07h.67a203.05,203.05,0,0,1,67,11.17,170.45,170.45,0,0,1,45,23.52c13.7,10.17,25.57,22.68,33.83,37.55,1.1,2,2.12,4,3.08,6.09,2.06-32.78,3.68-63.62,4.83-92-9.83-19.82-25.49-36.23-45.33-45.84a98.12,98.12,0,0,0-42.87-9.67,104.89,104.89,0,0,0-22.57,2.48,1094,1094,0,0,0-88,71.25C-1822.49,1174.05-1819.89,1173.66-1818,1173.37Z" transform="translate(2322.98 -885.43)"/><path class="cls-1" d="M-1595.72,1355.05c18.14-15.9,41.06-29.44,73.49-38.9a125.84,125.84,0,0,1,35.31-4.82c17.37,0,34.44,3.09,50.11,7.52a275.77,275.77,0,0,1,31.35,11.06c-24.54-41.64-51-82.23-78.83-121.85l-.39-.15a32.47,32.47,0,0,0-5.9-1.24,121.93,121.93,0,0,0-14.7-.77c-2.24,0-4.06,0-5.14.07a123,123,0,0,0-31.81,5.37,147,147,0,0,0-55.11,30.53,91.73,91.73,0,0,0-12.76,14c-.53.71-1.22,1.58-2,2.6s-1.76,2.19-2.75,3.44c-2,2.49-4.11,5.32-5.76,7.85a26.72,26.72,0,0,0-2.37,4.31,4.2,4.2,0,0,0-.31,1h0a4.15,4.15,0,0,1,0,.61,4,4,0,0,1-.38,1.5h0a3.88,3.88,0,0,1-.41.67,3.61,3.61,0,0,1-.53.58h0a3.68,3.68,0,0,1-.73.51c-2.63,38.23-5.81,78.67-9.51,120.52C-1623.19,1383.81-1611.2,1368.61-1595.72,1355.05Z" transform="translate(2322.98 -885.43)"/><path class="cls-1" d="M-1714.73,1092.8a106.15,106.15,0,0,1,46.37,10.47,105.92,105.92,0,0,1,42.41,37.9c1-27.66,1.49-52.67,1.49-74.41,0-12.42-.16-23.75-.5-33.91a953.8,953.8,0,0,0-98.08,60.27Q-1718.88,1092.81-1714.73,1092.8Z" transform="translate(2322.98 -885.43)"/><path class="cls-1" d="M-1744.23,1049.45a72.81,72.81,0,0,1,7.81,32.9,73,73,0,0,1-.85,11,969.59,969.59,0,0,1,104.32-65.34c-1.61-.22-3.38-.45-5.31-.68-8.23-1-19.24-1.93-32.74-2.77-24.17-1.5-56.33-2.63-95-2.86a71.13,71.13,0,0,1,6.56,6A89.8,89.8,0,0,1-1744.23,1049.45Z" transform="translate(2322.98 -885.43)"/><path class="cls-1" d="M-1259.85,1260.92c19.07-13.4,40.67-23,63.38-27q-54.12-29.93-111.71-59.42a154.79,154.79,0,0,0-41.19,24.32,124.15,124.15,0,0,0-31.45,39,146.81,146.81,0,0,0-16.32,66.22,127.32,127.32,0,0,0,3.68,30.56q29.48,50.73,55.06,103.62-.76-9.14-.76-18.3c0-35.39,8.48-70.74,26.34-101.39A185,185,0,0,1-1259.85,1260.92Z" transform="translate(2322.98 -885.43)"/><path class="cls-1" d="M-817.71,1049.18c25.51-35.8,59.52-65.5,101.47-88.83-79.37,1.59-159.3,5.38-240.89,10.73-24.81,6.82-46.58,21.59-64.26,41-18.31,20.1-32.18,45.13-40.32,71a247.79,247.79,0,0,0-11.1,74.35,280.1,280.1,0,0,0,16.49,94.13c10.81,30.1,26.76,58.11,47.26,81.61a4,4,0,0,1,1,2.65c69.71,43.91,134.07,87.76,193.21,130.78-39.38-66-59-145.14-59-222.26a443.44,443.44,0,0,1,2.67-48.78C-865,1139.18-846.94,1090.2-817.71,1049.18Z" transform="translate(2322.98 -885.43)"/><path class="cls-1" d="M-1338.16,1457.4c-18.4-39.48-38.65-78-60.45-115.74a281.23,281.23,0,0,0-40.37-15.11c-15.15-4.29-31.52-7.23-47.94-7.22a117.76,117.76,0,0,0-33.07,4.5c-31.44,9.2-53.12,22.08-70.46,37.24s-30.33,32.75-44,51.38a3.92,3.92,0,0,1-1.68,1.32q-.66,7.27-1.34,14.61c-4,42.91-8.49,87.07-13.48,131.63l1.71-2.51q2.24-3.21,4.57-6.35,4.37-5.88,9.08-11.5t9.72-11a280.68,280.68,0,0,1,69.57-53.7c42-23.09,89.74-36,137.12-36h0q6.36,0,12.69.31a177.83,177.83,0,0,1,41.43,6.62A121.69,121.69,0,0,1-1338.16,1457.4Z" transform="translate(2322.98 -885.43)"/><path class="cls-1" d="M-1119.93,1375.75a168.89,168.89,0,0,1,51.13-32.13,170.8,170.8,0,0,1,41.4-10.47q-74.85-46.65-157.85-93a3.93,3.93,0,0,1-1.4.42c-24.43,2.69-48,12.45-68.6,26.93a177.17,177.17,0,0,0-50.66,55.07c-17.06,29.27-25.25,63.25-25.25,97.36a215.53,215.53,0,0,0,4.36,43q24,52.57,43.58,107.38c12.65,35.74,23.48,72.27,33,109.3,5.81-51.5,16.26-104.93,34.52-155C-1195.19,1468.24-1164.79,1416.08-1119.93,1375.75Z" transform="translate(2322.98 -885.43)"/><path class="cls-1" d="M-1921.83,1271.21a141.26,141.26,0,0,1,18.41-4.9,243.78,243.78,0,0,1,46.61-4.19,270.29,270.29,0,0,1,30.75,1.69,211.4,211.4,0,0,1,60.87,16.33,221.06,221.06,0,0,1,51.07,31.52c27.49,22.41,50.76,51.06,71.62,83.27,3.25-37,6.1-72.93,8.51-107.13q.67-9.67,1.31-19.15a87.46,87.46,0,0,0-8.76-22.59,104.35,104.35,0,0,0-19.33-24.7c-15.35-14.66-35.06-25.67-55.17-32.7a195.27,195.27,0,0,0-64.31-10.72h-.65a197.54,197.54,0,0,0-33.47,3l-3.12.49c-1.34.2-3,.45-4.7.74-3.51.57-7.58,1.29-11,2.11-1.46.34-2.83.71-4,1.07C-1866.74,1212.52-1894.93,1241.27-1921.83,1271.21Z" transform="translate(2322.98 -885.43)"/><path class="cls-1" d="M-1509.58,1023.9a38.42,38.42,0,0,0-5.53,9.92,20.46,20.46,0,0,0-1.34,6.84c0,.19,0,.37,0,.55h0a46.19,46.19,0,0,0,4.18,16.67,66.57,66.57,0,0,0,8.89,14.46q33.45,14.89,65.9,30A59.72,59.72,0,0,1-1440,1095a65.05,65.05,0,0,1-2.33-17.52c0-12.75,3.38-25,7.83-35.69a147.27,147.27,0,0,1,14.54-26.4q1.79-2.56,3.3-4.58-43.79,4.23-88.73,8.56c-.32.27-.66.58-1,.94A34.11,34.11,0,0,0-1509.58,1023.9Z" transform="translate(2322.98 -885.43)"/><path class="cls-1" d="M-1529.09,954.92c.29-.73.6-1.45.91-2.17-29.72,22.62-57.12,45.51-81.81,68.51q46.26-4.32,91.25-8.63l-.86-.74a37.14,37.14,0,0,1-8-10.52,55.14,55.14,0,0,1-5.66-25c0-1,0-2.06.08-3.08A56.33,56.33,0,0,1-1529.09,954.92Z" transform="translate(2322.98 -885.43)"/><path class="cls-1" d="M-1517,1020.5q-43.26,4.14-87.7,8.3,44.67,18.53,87.7,37.52c-.93-1.7-1.79-3.42-2.57-5.18a54,54,0,0,1-4.86-19.6h0c0-.29,0-.59,0-.88a30.41,30.41,0,0,1,3-12.34A46.86,46.86,0,0,1-1517,1020.5Z" transform="translate(2322.98 -885.43)"/><path class="cls-1" d="M-1840.88,1058.91a123.2,123.2,0,0,1,13.4,55.81c0,1.06,0,2.12,0,3.18-.48,17.68-2.88,37.1-7.85,54.88a1112.91,1112.91,0,0,1,88.5-72.43,3.73,3.73,0,0,1,.14-.92,63.89,63.89,0,0,0,2.31-17.08,64.8,64.8,0,0,0-6.94-29.27,81.33,81.33,0,0,0-13.87-19.82,54.06,54.06,0,0,0-15.85-11.55c-27.08,0-57,.46-89.44,1.52A103.13,103.13,0,0,1-1840.88,1058.91Z" transform="translate(2322.98 -885.43)"/><path class="cls-1" d="M-2041.41,1409.13c29.83-42.39,61.78-83.69,95.91-123.16a3.31,3.31,0,0,1,.07-.55,190.86,190.86,0,0,0,4.1-40.45c0-38.1-9.74-78.38-24.51-110.81a209.19,209.19,0,0,0-39.36-58.7,184.33,184.33,0,0,0-56.69-40.15c-72.72,6.75-151.15,16.49-232.69,30.21,47.74,23.56,88.26,55.65,124.51,95.22,37.86,41.33,70.67,88.35,90.18,141.26,12,32.49,19.1,67,19.1,101.41a234.75,234.75,0,0,1-3.11,38.43Q-2052.82,1425.36-2041.41,1409.13Z" transform="translate(2322.98 -885.43)"/><path class="cls-1" d="M-1999.43,1069.91a217.1,217.1,0,0,1,40.87,60.94c15.23,33.49,25.22,74.66,25.23,114.12a207.76,207.76,0,0,1-2,29.37c27.93-31.6,57.3-61.95,88.13-90.67,0,0,0-.08,0-.12a3.83,3.83,0,0,1,.19-.72s0,0,0,0h0c7.38-19.72,10.93-43.78,11.48-65.1,0-1,0-2,0-3a115.12,115.12,0,0,0-12.52-52.15c-8.19-15.94-20.2-29.52-35.53-38.34a3.9,3.9,0,0,1-.69-.52c-49.32,1.83-103.94,5.06-162.47,10.22A192.68,192.68,0,0,1-1999.43,1069.91Z" transform="translate(2322.98 -885.43)"/><path class="cls-1" d="M-1631.61,1020.16a1212.51,1212.51,0,0,0-92.15-96.49,71.43,71.43,0,0,1,1.47,14.77,104,104,0,0,1-5,30.57c-3.93,12.49-10.35,24.46-19.79,33.92a64,64,0,0,1-14.4,10.85c29.13.22,54.45,1,75.33,2C-1661.48,1017-1643,1018.55-1631.61,1020.16Z" transform="translate(2322.98 -885.43)"/><path class="cls-1" d="M-1680.15,1728.66c7.16-51.27,13.72-103.48,19.63-155.27-12.56-25.35-31.73-46.71-54.41-64.82-23.53-18.79-50.79-34-78-46.58-27.7-12.75-56.57-23-86.39-28.36a275.2,275.2,0,0,0-48.09-4.21c-50.59,0-101.4,13.73-144,40.41a3.93,3.93,0,0,1-1.73.59,1792.25,1792.25,0,0,0-116.3,207.9c55.22-39.36,119.51-67.85,187.82-74.09q10.73-1,21.84-1c43.53,0,91,11,135.12,30.9s85,48.62,115.21,84.29c17.81,21,31.89,44.5,40.68,70Q-1684.36,1758.84-1680.15,1728.66Z" transform="translate(2322.98 -885.43)"/><path class="cls-1" d="M-1065.86,1351.06a160.68,160.68,0,0,0-48.72,30.64c-43.63,39.22-73.41,90.15-93.61,145.56s-30.76,115.24-36,172a3.94,3.94,0,0,1-.64,1.83c12.71,52.41,23,105.71,32.3,159.16,8-31.93,15.85-64.27,25.28-96.15,11.46-38.71,25.19-76.75,44.15-112.52,18.68-35.23,46.33-70.19,79.52-100.22s72-55.11,112.94-70.42c27.32-10.21,55.63-16.06,83.91-16.06a193.5,193.5,0,0,1,42.18,4.57c-58.76-42.59-122.64-86-191.77-129.38A167.6,167.6,0,0,0-1065.86,1351.06Z" transform="translate(2322.98 -885.43)"/><path class="cls-1" d="M-1331.81,1471.2h0c-.12-.07-.24-.14-.35-.22l-.14-.09a107.59,107.59,0,0,0-35-17.26,146.49,146.49,0,0,0-14.54-3.46c-2.05-.38-4.12-.72-6.19-1-6.22-.92-12.52-1.5-18.83-1.81l-.42,0q-5.93-.27-11.88-.28c-45.93,0-92.41,12.49-133.27,35-37,20.36-69.42,48.9-92.66,83.65q-3.6,5.38-6.91,11h0a3.5,3.5,0,0,1-.42.57l-.14.16-.37.34c-7.72,67.32-16.53,135.28-26.32,201a459.42,459.42,0,0,1,40.79-47.73c20.14-20.29,42.64-38.21,68.4-52,45.4-24.28,98.45-36.72,150.5-36.72a315.88,315.88,0,0,1,43.4,3c23.58,3.27,45.81,10.54,67.26,19.62,18.19,7.69,35.82,16.69,53.24,25.69-10-39.91-21.49-79.21-35.07-117.56Q-1309.13,1521.06-1331.81,1471.2Z" transform="translate(2322.98 -885.43)"/><path class="cls-1" d="M-498.86,1001.71c13.57-12.57,29.06-26.64,45.09-37.7-60.46-3.1-120.54-4.5-180.74-4.5q-32,0-64,.52c-47.49,23.85-85.17,55.21-112.66,93.79-28.38,39.83-45.95,87.4-52.07,142.6a437.17,437.17,0,0,0-2.62,47.9c0,82,22.65,166.55,67.81,233.92a3.66,3.66,0,0,1,.48,1q16.77,12.36,33,24.62c55.56,42.07,106,83.11,151.57,122.41-2.72-7.18-5.33-14.85-7.63-21.91-2.25-6.9-4.2-13.2-5.66-17.78-.83-2.62-1.51-4.69-1.95-5.9a559.87,559.87,0,0,1-33.55-191.54c0-71.9,13.64-143.64,40.84-210S-553.06,1051.92-498.86,1001.71Z" transform="translate(2322.98 -885.43)"/><path class="cls-1" d="M-2063.72,1456c41.37-22.89,88.91-34.58,136.3-34.58a282.6,282.6,0,0,1,49.49,4.34c30.7,5.46,60.21,16,88.33,29,27.62,12.72,55.43,28.25,79.66,47.6,20.25,16.17,38,35,51,57.16,5.77-51.45,10.88-102.37,15.29-151.46-16.29-26.17-33.94-50-53.78-70.27-20.89-21.29-44.19-38.54-71-50.29a203.12,203.12,0,0,0-58.59-15.7,262.72,262.72,0,0,0-29.82-1.64,253.92,253.92,0,0,0-34,2.19,146.82,146.82,0,0,0-31.34,7.47,76.4,76.4,0,0,0-12.64,6,1551,1551,0,0,0-100.08,127.91Q-2049.58,1434.64-2063.72,1456Z" transform="translate(2322.98 -885.43)"/><path class="cls-1" d="M-1175.31,1010a260.38,260.38,0,0,0-19.33,31.31,119.69,119.69,0,0,0-8.19,19.4,219.16,219.16,0,0,0-9.86,64.19c0,36,9.41,70.91,27.12,105.85q83.67,46.47,159.07,93.5a268.81,268.81,0,0,1-37.35-70,288.06,288.06,0,0,1-17-96.84,255.53,255.53,0,0,1,11.47-76.75c8.48-26.93,22.86-52.92,42-74a153.93,153.93,0,0,1,43.65-33.82c-56.62,3.92-114.09,8.54-172.75,13.65A239.1,239.1,0,0,0-1175.31,1010Z" transform="translate(2322.98 -885.43)"/><path class="cls-1" d="M-1406.19,1010.54l-.28.31c-.44.5-1.12,1.3-2,2.34-1.66,2.08-3.95,5.15-6.49,9a131.05,131.05,0,0,0-15.09,30.3,79.67,79.67,0,0,0-4.37,25,57.38,57.38,0,0,0,2,15.38,53.63,53.63,0,0,0,6.84,15l.06.11q56.7,26.67,110.37,54a123.9,123.9,0,0,1-7.71-23.91,173.87,173.87,0,0,1-3.71-36.68,211.79,211.79,0,0,1,4.12-41.38,136.75,136.75,0,0,1,13.59-38.11,111.6,111.6,0,0,1,16.4-23q-55.63,5.25-113,10.82A3.94,3.94,0,0,1-1406.19,1010.54Z" transform="translate(2322.98 -885.43)"/><path class="cls-1" d="M-1301.75,1025.7a129.22,129.22,0,0,0-12.78,35.88,203.74,203.74,0,0,0-4,39.8,165.22,165.22,0,0,0,3.53,35,107.27,107.27,0,0,0,11.67,31.19,3.7,3.7,0,0,1,.24.54q54.22,27.77,105.34,56c-15-32.46-23-65.34-23-99.13a226.73,226.73,0,0,1,10.21-66.52,127.63,127.63,0,0,1,8.72-20.73A247.48,247.48,0,0,1-1189,1015.9a289.35,289.35,0,0,1,21-28.37q-55.07,4.85-111.67,10.19A100.07,100.07,0,0,0-1301.75,1025.7Z" transform="translate(2322.98 -885.43)"/><path class="cls-1" d="M-1512.95,942.06a86.23,86.23,0,0,0-8.71,15.83,48.35,48.35,0,0,0-3.51,15.81c0,.88-.07,1.78-.07,2.68a50.28,50.28,0,0,0,2.64,16.33,31.68,31.68,0,0,0,8.38,13.25,24.73,24.73,0,0,0,9.18,5.28l.14.06q35.79-3.43,70.84-6.83l-1.24-.44a74.29,74.29,0,0,1-23.57-14,57.17,57.17,0,0,1-15.91-23,68.49,68.49,0,0,1-4.25-23.64,74.4,74.4,0,0,1,3.42-21.88,95,95,0,0,1,3.34-9.11q-20.67,14.21-40.18,28.6A4,4,0,0,1-1512.95,942.06Z" transform="translate(2322.98 -885.43)"/><path class="cls-1" d="M-1584.36,895.64c-1,.35-2.11.7-3.27,1a76.39,76.39,0,0,1-21.67,3.25,66.94,66.94,0,0,1-21.47-3.5,36.53,36.53,0,0,1-10.2-5.57,1027.76,1027.76,0,0,1,21.18,113.19A1011.56,1011.56,0,0,1-1584.36,895.64Z" transform="translate(2322.98 -885.43)"/><path class="cls-1" d="M-1529.62,943.8l-2-.34-2.21-.38a82.27,82.27,0,0,1-21.25-6c-6.91-3.11-13.37-7.5-18.12-13.69a32.38,32.38,0,0,1-4.64-8.45,42.73,42.73,0,0,1-2.13-8.3,976.57,976.57,0,0,0-34.12,107.58A1096.76,1096.76,0,0,1-1529.62,943.8Z" transform="translate(2322.98 -885.43)"/><polygon class="cls-2" points="798.55 156.12 798.55 156.11 798.55 156.11 798.55 156.12"/><path class="cls-3" d="M-1381.87,1450.17c-2.05-.38-4.12-.72-6.19-1" transform="translate(2322.98 -885.43)"/><path class="cls-3" d="M-1629.1,1279.1l.19.08" transform="translate(2322.98 -885.43)"/><path class="cls-3" d="M-1628.44,1279.36l.23.06" transform="translate(2322.98 -885.43)"/><path class="cls-3" d="M-1628.21,1279.42a5.5,5.5,0,0,0,.69.11" transform="translate(2322.98 -885.43)"/><path class="cls-3" d="M-1628.91,1279.18a3.8,3.8,0,0,0,.47.18" transform="translate(2322.98 -885.43)"/><path class="cls-2" d="M-493.42,1007.57c15.93-14.77,34.36-31.39,52.5-42.38a3.82,3.82,0,0,0,.6-.46q18.63,1,37.34,2.29v-8q-19.72-1.32-39.39-2.39c-5.56-6-20.69-22.47-36.86-43.18-6.83-8.75-13.84-18.26-20.39-28h-9.61A544.84,544.84,0,0,0-470,937.5c6.34,7.52,12,13.86,16.17,18.5-60.46-3.09-120.54-4.49-180.71-4.49q-28.89,0-57.82.42a3.89,3.89,0,0,0-1.35-1.26c-24.51-13.9-45-34.95-59.92-62.73-.44-.82-.86-1.67-1.3-2.51h-9c1,2.13,2.11,4.23,3.22,6.29,13.73,25.61,32.18,45.94,54.13,60.44-81.26,1.44-163,5.22-246.49,10.63a209.71,209.71,0,0,1-32.59-77.36h-8.17a218.12,218.12,0,0,0,31.54,78c-63.06,4.18-127.11,9.26-192.65,15a276.08,276.08,0,0,1-23.44-92.92h-8a284.09,284.09,0,0,0,23,93.65q-57.33,5-116.3,10.6a4,4,0,0,0-2.38-.06c-.09-.07-.16-.14-.25-.2a118.61,118.61,0,0,1-36-36.75,118.7,118.7,0,0,1-17.35-48.47,99.62,99.62,0,0,1-.71-11.94c0-2.28.09-4.56.24-6.83h-8c-.14,2.27-.22,4.55-.22,6.83a107.46,107.46,0,0,0,.77,12.9,126.58,126.58,0,0,0,18.51,51.75A127.57,127.57,0,0,0-1293.88,991q-58.47,5.54-118.85,11.39a156.63,156.63,0,0,1-19.79-5.88,66.28,66.28,0,0,1-21-12.49,49.32,49.32,0,0,1-13.74-19.79,60.5,60.5,0,0,1-3.76-20.9,66.29,66.29,0,0,1,3.07-19.53,98.61,98.61,0,0,1,8.43-19.26,4.35,4.35,0,0,0,.42-1.14q13.42-9,27.32-18h-14.69q-10.05,6.59-19.87,13.22a78.09,78.09,0,0,1-14.1-1.69,114,114,0,0,1-24.13-8c-2.43-1.12-4.75-2.32-7-3.56h-14.29a74.34,74.34,0,0,0,10,6.79,117.11,117.11,0,0,0,25,10.4,110.87,110.87,0,0,0,14.06,3.11q-22.37,15.38-43.4,31h-.36a47.7,47.7,0,0,1-6.61-.63c-1.14-.17-2.22-.35-3.17-.52l-2.37-.4a74.38,74.38,0,0,1-19.16-5.42c-6.06-2.73-11.37-6.44-15.06-11.26a24.5,24.5,0,0,1-3.5-6.39,42.1,42.1,0,0,1-2.26-11.16c-.33-3.82-.38-7.84-.54-11.93.47-1.19,1-2.39,1.43-3.58h-8.6l-.07.17c-.77.32-1.65.68-2.66,1.07a72.57,72.57,0,0,1-26.21,5.26,59,59,0,0,1-18.91-3.08,27.26,27.26,0,0,1-6.62-3.42h-15.73a1018.07,1018.07,0,0,1,23.9,128.22,1222.16,1222.16,0,0,0-91.59-95.78,45.5,45.5,0,0,0,6,.75c1.14.06,2.28.08,3.41.08a65.46,65.46,0,0,0,37.27-11.64,72.21,72.21,0,0,0,20.46-21.63h-9.63a63.53,63.53,0,0,1-15.36,15,57.51,57.51,0,0,1-32.74,10.23c-1,0-2,0-3-.07a49.62,49.62,0,0,1-10.47-2,49.11,49.11,0,0,1-9.9-3.95c-.09-.05-.18-.08-.27-.12q-10.53-9.65-21.34-19.18H-1766q14.8,12.9,29.06,26a43.49,43.49,0,0,1,4.93,12.1,61.85,61.85,0,0,1,1.72,14.93,95.5,95.5,0,0,1-4.61,28.17c-3.61,11.51-9.49,22.33-17.81,30.67a56,56,0,0,1-14.19,10.34,47,47,0,0,1-16.53,4.93l-.24.05-.42.08-.36.13c-.12.05-.24.09-.36.15a3.79,3.79,0,0,0-.34.2,2.11,2.11,0,0,0-.31.21,3.47,3.47,0,0,0-.29.25l-.11.09c-24.78.06-51.87.49-81,1.4q2.63-1.85,5.37-3.81c9.8-7,20.62-15.32,30.56-25.78a119.6,119.6,0,0,0,25.18-38.87c7.84-20,13.11-40.48,13.32-61.22h-8c-.21,19.4-5.16,38.94-12.77,58.3s-20,33.94-33.19,45.56a247.66,247.66,0,0,1-19.77,15.51c-5.38,3.87-10.53,7.4-15.16,10.8-45.78,1.65-96.18,4.5-150.08,9,42.45-18.46,81-47.28,108.22-84.53A218.81,218.81,0,0,0-1894.47,886c.06-.18.12-.36.19-.54h-8.52a211.21,211.21,0,0,1-26.81,49.92c-31.67,43.45-79.87,75.36-131.32,91.83-72.51,6.7-150.72,16.36-232.07,30,66.79-42.14,120.9-102.28,158.27-171.71h-9.11c-39.43,71.69-97.07,133-168.11,173.8a3.94,3.94,0,0,0-1.42,1.39l-9.61,1.69v8.13q7.35-1.32,14.69-2.59c51.22,23.46,94.05,56.53,132.32,98.29,37.39,40.81,69.55,87,88.58,138.62,11.7,31.74,18.6,65.33,18.6,98.65A220.79,220.79,0,0,1-2076,1460a1804.58,1804.58,0,0,0-117.69,208.41c-6.55-37-12.23-74.34-19.44-111.37-8.36-42.9-18.79-85.43-35.12-126.63-19-47.9-44.09-92.91-74.76-132.82v13.29a546.86,546.86,0,0,1,67.32,122.47c16.07,40.54,26.4,82.57,34.71,125.22,7.88,40.45,14,81.45,21.4,122.25q-27.3,58.16-50.11,118.07c-14.2,37.41-27.5,75.76-38.91,114.64-7.42-44.45-19.34-88.17-34.41-130.86v25c13.17,40.72,23.27,82.26,29.14,124.33q-4.62,16.66-8.68,33.44h8.23q3.6-14.7,7.61-29.32a3.82,3.82,0,0,0,.73-1.11,91,91,0,0,1,13.08-20.58,133.44,133.44,0,0,1,17.61-17.57c55.48-46.08,127.85-69.68,200.27-69.67a326.48,326.48,0,0,1,88.83,12.2A398.33,398.33,0,0,1-1828.67,1910a381,381,0,0,1,56.84,55.4h10.31a386.8,386.8,0,0,0-62.19-61.67A406.29,406.29,0,0,0-1964,1831.69a334.34,334.34,0,0,0-91-12.51c-74.14,0-148.28,24.11-205.38,71.52a141.27,141.27,0,0,0-18.58,18.52c10.9-36.37,23.43-72.31,36.77-107.45q21.36-56.25,46.86-111.07a4,4,0,0,0,3.3-.68c55.92-41.41,121.58-71.49,191.07-77.82,6.89-.63,13.94-.94,21.11-.94,28.12,0,58.14,4.77,87.83,13.72,44.54,13.42,88.31,36.25,123.86,66.29a263.18,263.18,0,0,1,46.25,50.16,198.85,198.85,0,0,1,28.55,59.23,4,4,0,0,0,2.25,2.57c-8.76,56.75-18.26,111.47-28.39,162.2h8.16c5.69-28.59,11.18-58.41,16.45-89.13,4.51-26.28,8.85-53.23,13-80.61,15-20.91,31.1-41,49-59.1,19.7-19.85,41.58-37.24,66.49-50.57,44.11-23.61,96-35.79,146.73-35.78a307.53,307.53,0,0,1,42.3,2.88c22.65,3.14,44.21,10.16,65.24,19.06,20,8.45,39.45,18.59,58.91,28.66,13.39,54.87,24.12,110.84,33.8,167a53.36,53.36,0,0,0-5-2.81,392.94,392.94,0,0,0-174.57-40.73,385.91,385.91,0,0,0-83.38,9c-84,18.59-161.18,65.87-216,132.08h10.48c53.39-62.14,127.27-106.57,207.28-124.27a378,378,0,0,1,81.65-8.85,385,385,0,0,1,171,39.89,31.78,31.78,0,0,1,7.21,4.61,10.68,10.68,0,0,1,2.12,2.57,6,6,0,0,1,.79,2.59,4,4,0,0,0,1.33,2.7c4.54,26.93,8.89,53.88,13.21,80.76h8.1c-4.58-28.49-9.18-57.09-14-85.67,9.55-37.67,18.53-76,29.6-113.39,11.37-38.41,24.94-75.94,43.55-111,24.22-45.7,64.34-91.47,112-125.66,23.85-17.09,49.59-31.31,76.15-41.23s53.94-15.55,81.11-15.55a182.31,182.31,0,0,1,60.91,10.24q18.54,13.64,36.37,27.14c60.57,45.85,115.06,90.48,163.68,133,.3.59.61,1.16.91,1.72a449,449,0,0,0-89.73-8.77c-54,0-123.49,9.26-192.31,44.5-71.68,36.71-130.74,94.12-179.55,161.07-28.22,38.73-53,80.67-74.87,123.7h9c21.24-41.45,45.23-81.76,72.37-119,48.29-66.25,106.49-122.7,176.72-158.67,67.36-34.5,135.52-43.62,188.67-43.62a457.46,457.46,0,0,1,72,5.64c8.75,1.41,15.64,2.82,20.33,3.87,2.34.53,4.14,1,5.34,1.27l1.35.35.33.09.08,0h0a4,4,0,0,0,2.91-.31c53.63,47.45,99.78,92,138.68,132.34a4,4,0,0,0,1,2.65l49.6,55.28V1829.9c-49.33-54.72-114.51-120.12-196.35-191.68-1.59-3.24-3.24-7.07-4.88-11.2-3.62-9.16-7.16-19.77-10.09-28.89-1.47-4.56-2.78-8.75-3.88-12.22s-2-6.19-2.61-8a552.11,552.11,0,0,1-33.06-188.8c0-70.89,13.46-141.61,40.24-206.94S-546.72,1057-493.42,1007.57Zm-321.46,459c-59.14-43-123.5-86.87-193.21-130.78a4,4,0,0,0-1-2.65c-20.5-23.5-36.45-51.51-47.26-81.61a280.1,280.1,0,0,1-16.49-94.13,247.79,247.79,0,0,1,11.1-74.35c8.14-25.86,22-50.89,40.32-71,17.68-19.4,39.45-34.17,64.26-41,81.59-5.35,161.52-9.14,240.89-10.73-42,23.33-76,53-101.47,88.83-29.23,41-47.27,90-53.5,146.36a443.44,443.44,0,0,0-2.67,48.78C-873.87,1321.44-854.26,1400.62-814.88,1466.58Zm-468.34,103.7q-19.42-54.84-43.58-107.38a215.53,215.53,0,0,1-4.36-43c0-34.11,8.19-68.09,25.25-97.36a177.17,177.17,0,0,1,50.66-55.07c20.6-14.48,44.17-24.24,68.6-26.93a3.93,3.93,0,0,0,1.4-.42q83,46.26,157.85,93a170.8,170.8,0,0,0-41.4,10.47,168.89,168.89,0,0,0-51.13,32.13c-44.86,40.33-75.26,92.49-95.77,148.78-18.26,50.12-28.71,103.55-34.52,155C-1259.74,1642.55-1270.57,1606-1283.22,1570.28Zm-136-131.25h0c-47.38,0-95.12,12.86-137.12,36a280.68,280.68,0,0,0-69.57,53.7q-5,5.34-9.72,11t-9.08,11.5q-2.34,3.13-4.57,6.35L-1651,1560c5-44.56,9.5-88.72,13.48-131.63q.68-7.34,1.34-14.61a3.92,3.92,0,0,0,1.68-1.32c13.68-18.63,26.68-36.21,44-51.38s39-28,70.46-37.24a117.76,117.76,0,0,1,33.07-4.5c16.42,0,32.79,2.93,47.94,7.22a281.23,281.23,0,0,1,40.37,15.11c21.8,37.7,42,76.26,60.45,115.74a121.69,121.69,0,0,0-26.91-11.44,177.83,177.83,0,0,0-41.43-6.62Q-1412.83,1439-1419.19,1439ZM-1671,1024.6c13.5.84,24.51,1.8,32.74,2.77,1.93.23,3.7.46,5.31.68a969.59,969.59,0,0,0-104.32,65.34,73,73,0,0,0,.85-11,72.81,72.81,0,0,0-7.81-32.9,89.8,89.8,0,0,0-15.25-21.76,71.13,71.13,0,0,0-6.56-6C-1727.33,1022-1695.17,1023.1-1671,1024.6Zm143.42-23.23a37.14,37.14,0,0,0,8,10.52l.86.74q-45,4.3-91.25,8.63c24.69-23,52.09-45.89,81.81-68.51-.31.72-.62,1.44-.91,2.17a56.33,56.33,0,0,0-4.07,18.38c0,1-.08,2-.08,3.08A55.14,55.14,0,0,0-1527.58,1001.37Zm110.88,9.46q-1.52,2-3.3,4.58a147.27,147.27,0,0,0-14.54,26.4c-4.45,10.69-7.83,22.94-7.83,35.69A65.05,65.05,0,0,0-1440,1095a59.72,59.72,0,0,0,2.57,7.37q-32.46-15.14-65.9-30a66.57,66.57,0,0,1-8.89-14.46,46.19,46.19,0,0,1-4.18-16.67h0c0-.18,0-.36,0-.55a20.46,20.46,0,0,1,1.34-6.84,38.42,38.42,0,0,1,5.53-9.92,34.11,34.11,0,0,1,3.12-3.57c.37-.36.71-.67,1-.94Q-1460.47,1015.07-1416.7,1010.83Zm78.3,427.36q-25.49-52.9-55.06-103.62a127.32,127.32,0,0,1-3.68-30.56,146.81,146.81,0,0,1,16.32-66.22,124.15,124.15,0,0,1,31.45-39,154.79,154.79,0,0,1,41.19-24.32q57.6,29.46,111.71,59.42c-22.71,4-44.31,13.64-63.38,27a185,185,0,0,0-53,57.58c-17.86,30.65-26.34,66-26.34,101.39Q-1339.16,1429.05-1338.4,1438.19Zm-296.47-38.65c3.7-41.85,6.88-82.29,9.51-120.52a3.68,3.68,0,0,0,.73-.51h0a3.61,3.61,0,0,0,.53-.58,3.88,3.88,0,0,0,.41-.67h0a4,4,0,0,0,.38-1.5,4.15,4.15,0,0,0,0-.61h0a4.2,4.2,0,0,1,.31-1,26.72,26.72,0,0,1,2.37-4.31c1.65-2.53,3.79-5.36,5.76-7.85,1-1.25,1.93-2.42,2.75-3.44s1.51-1.89,2-2.6a91.73,91.73,0,0,1,12.76-14,147,147,0,0,1,55.11-30.53,123,123,0,0,1,31.81-5.37c1.08,0,2.9-.07,5.14-.07a121.93,121.93,0,0,1,14.7.77,32.47,32.47,0,0,1,5.9,1.24l.39.15c27.88,39.62,54.29,80.21,78.83,121.85a275.77,275.77,0,0,0-31.35-11.06c-15.67-4.43-32.74-7.52-50.11-7.52a125.84,125.84,0,0,0-35.31,4.82c-32.43,9.46-55.35,23-73.49,38.9C-1611.2,1368.61-1623.19,1383.81-1634.87,1399.54Zm110.44-358a54,54,0,0,0,4.86,19.6c.78,1.76,1.64,3.48,2.57,5.18q-43-19-87.7-37.52,44.45-4.15,87.7-8.3a46.86,46.86,0,0,0-4.5,7.82,30.41,30.41,0,0,0-3,12.34C-1524.45,1041-1524.44,1041.25-1524.43,1041.54Zm-104.48,237.64a3.8,3.8,0,0,0,.47.18l.23.06a5.5,5.5,0,0,0,.69.11,5.5,5.5,0,0,1-.69-.11l-.23-.06a3.8,3.8,0,0,1-.47-.18l-.19-.08Zm4.76-18.32c2.26-34.59,4-67.18,5.32-97.12a4,4,0,0,0,2.19-2.23,44.1,44.1,0,0,1,14.3-18.78,52.5,52.5,0,0,1,22.08-9.87,57.6,57.6,0,0,1,10.88-1c12.84,0,25.88,4.11,37,11l.41.21q20.91,27.46,40.94,55.55c-1.61-.18-3.25-.31-4.88-.41-3.38-.2-6.69-.25-9.4-.26-2.33,0-4.23,0-5.32.07a130.77,130.77,0,0,0-33.89,5.7,154.86,154.86,0,0,0-58.13,32.19,100.39,100.39,0,0,0-13.88,15.24c-.31.42-.78,1-1.36,1.73C-1619.47,1254.85-1621.85,1257.77-1624.15,1260.86Zm6-113.14c1.15-30.24,1.73-57.47,1.73-81,0-10.47-.12-20.19-.35-29.11q37.93,44.73,74,91.16a76,76,0,0,0-26.54-5,65.55,65.55,0,0,0-12.39,1.17,60.47,60.47,0,0,0-25.47,11.39A54.18,54.18,0,0,0-1618.19,1147.72Zm79.73-26.32q-33.6-43.31-69-85.08,47,19.48,92.16,39.5c-.42.24-.83.49-1.27.76a68.2,68.2,0,0,0-10.2,7.66,38.71,38.71,0,0,0-8.47,10.7,39.49,39.49,0,0,0-3.84,17.85A63.91,63.91,0,0,0-1538.46,1121.4Zm48.42,64.77q-18.09-25.15-36.9-49.8c-.81-2.88-1.72-6.2-2.49-9.77a66.61,66.61,0,0,1-1.65-13.81,31.58,31.58,0,0,1,3-14.26,28.61,28.61,0,0,1,5.39-7.11,59.05,59.05,0,0,1,11.16-8.54,46.42,46.42,0,0,1,4.51-2.38c.49-.22.9-.39,1.19-.49q31.58,14.07,62.26,28.35a70.27,70.27,0,0,0-16.3,6,53.55,53.55,0,0,0-22.56,22.16,68.06,68.06,0,0,0-6.3,17.6,93.3,93.3,0,0,0-2.11,19.86A91,91,0,0,0-1490,1186.17ZM-1625,1032.85c.34,10.16.5,21.49.5,33.91,0,21.74-.5,46.75-1.49,74.41a105.92,105.92,0,0,0-42.41-37.9,106.15,106.15,0,0,0-46.37-10.47q-4.15,0-8.31.32A953.8,953.8,0,0,1-1625,1032.85Zm270.47,159.79a132,132,0,0,0-33.46,41.52,154.91,154.91,0,0,0-17.19,69.85q0,5.81.5,11.61-33.45-55.83-71-109.16a3.78,3.78,0,0,0-.17-1,4.78,4.78,0,0,0-.26-.62l0-.11a51.87,51.87,0,0,1-5.05-14.07,79.56,79.56,0,0,1-1.69-16.61,85.22,85.22,0,0,1,1.92-18.14,60.28,60.28,0,0,1,5.53-15.52,45.52,45.52,0,0,1,19.26-18.89,69.12,69.12,0,0,1,25.28-7.13q58.27,27.36,113.35,55.39A160.47,160.47,0,0,0-1354.49,1192.64Zm-382.81-89.36a104.89,104.89,0,0,1,22.57-2.48,98.12,98.12,0,0,1,42.87,9.67c19.84,9.61,35.5,26,45.33,45.84-1.15,28.34-2.77,59.18-4.83,92-1-2.07-2-4.11-3.08-6.09-8.26-14.87-20.13-27.38-33.83-37.55a170.45,170.45,0,0,0-45-23.52,203.05,203.05,0,0,0-67-11.17h-.67a204.41,204.41,0,0,0-34.83,3.07l-2.27.36c-1.87.29-4.47.68-7.33,1.16A1094,1094,0,0,1-1737.3,1103.28Zm-99.9,82c1.13-.36,2.5-.73,4-1.07,3.47-.82,7.54-1.54,11-2.11,1.75-.29,3.36-.54,4.7-.74l3.12-.49a197.54,197.54,0,0,1,33.47-3h.65a195.27,195.27,0,0,1,64.31,10.72c20.11,7,39.82,18,55.17,32.7a104.35,104.35,0,0,1,19.33,24.7,87.46,87.46,0,0,1,8.76,22.59q-.63,9.48-1.31,19.15c-2.41,34.2-5.26,70.11-8.51,107.13-20.86-32.21-44.13-60.86-71.62-83.27a221.06,221.06,0,0,0-51.07-31.52,211.4,211.4,0,0,0-60.87-16.33,270.29,270.29,0,0,0-30.75-1.69,243.78,243.78,0,0,0-46.61,4.19,141.26,141.26,0,0,0-18.41,4.9C-1894.93,1241.27-1866.74,1212.52-1837.2,1185.3Zm-97.58,100.52a76.4,76.4,0,0,1,12.64-6,146.82,146.82,0,0,1,31.34-7.47,253.92,253.92,0,0,1,34-2.19,262.72,262.72,0,0,1,29.82,1.64,203.12,203.12,0,0,1,58.59,15.7c26.77,11.75,50.07,29,71,50.29,19.84,20.23,37.49,44.1,53.78,70.27-4.41,49.09-9.52,100-15.29,151.46-13-22.12-30.74-41-51-57.16-24.23-19.35-52-34.88-79.66-47.6-28.12-12.94-57.63-23.5-88.33-29a282.6,282.6,0,0,0-49.49-4.34c-47.39,0-94.93,11.69-136.3,34.58q14.14-21.35,28.86-42.27A1551,1551,0,0,1-1934.78,1285.82Zm907.48-279.14c-19.18,21.06-33.56,47.05-42,74a255.53,255.53,0,0,0-11.47,76.75,288.06,288.06,0,0,0,17,96.84,268.81,268.81,0,0,0,37.35,70q-75.43-46.89-159.07-93.5c-17.71-34.94-27.12-69.88-27.12-105.85a219.16,219.16,0,0,1,9.86-64.19,119.69,119.69,0,0,1,8.19-19.4,260.38,260.38,0,0,1,19.33-31.31,239.1,239.1,0,0,1,18.91-23.52c58.66-5.11,116.13-9.73,172.75-13.65A153.93,153.93,0,0,0-1027.3,1006.68Zm-161.7,9.22a247.48,247.48,0,0,0-12.76,21.78,127.63,127.63,0,0,0-8.72,20.73,226.73,226.73,0,0,0-10.21,66.52c0,33.79,8,66.67,23,99.13q-51.13-28.17-105.34-56a3.7,3.7,0,0,0-.24-.54,107.27,107.27,0,0,1-11.67-31.19,165.22,165.22,0,0,1-3.53-35,203.74,203.74,0,0,1,4-39.8,129.22,129.22,0,0,1,12.78-35.88,100.07,100.07,0,0,1,22.09-28Q-1223,992.4-1168,987.53A289.35,289.35,0,0,0-1189,1015.9Zm-103.38-17a111.6,111.6,0,0,0-16.4,23,136.75,136.75,0,0,0-13.59,38.11,211.79,211.79,0,0,0-4.12,41.38,173.87,173.87,0,0,0,3.71,36.68,123.9,123.9,0,0,0,7.71,23.91q-53.68-27.26-110.37-54l-.06-.11a53.63,53.63,0,0,1-6.84-15,57.38,57.38,0,0,1-2-15.38,79.67,79.67,0,0,1,4.37-25,131.05,131.05,0,0,1,15.09-30.3c2.54-3.83,4.83-6.9,6.49-9,.83-1,1.51-1.84,2-2.34l.28-.31a3.94,3.94,0,0,0,.78-.8Q-1348,1004.19-1292.38,998.92Zm-179.89-86.56a95,95,0,0,0-3.34,9.11,74.4,74.4,0,0,0-3.42,21.88,68.49,68.49,0,0,0,4.25,23.64,57.17,57.17,0,0,0,15.91,23,74.29,74.29,0,0,0,23.57,14l1.24.44q-35.06,3.39-70.84,6.83l-.14-.06a24.73,24.73,0,0,1-9.18-5.28,31.68,31.68,0,0,1-8.38-13.25,50.28,50.28,0,0,1-2.64-16.33c0-.9,0-1.8.07-2.68a48.35,48.35,0,0,1,3.51-15.81,86.23,86.23,0,0,1,8.71-15.83,4,4,0,0,0,.5-1.1Q-1493,926.58-1472.27,912.36Zm-105.61,2.54a32.38,32.38,0,0,0,4.64,8.45c4.75,6.19,11.21,10.58,18.12,13.69a82.27,82.27,0,0,0,21.25,6l2.21.38,2,.34a1096.76,1096.76,0,0,0-84.51,70.38A976.57,976.57,0,0,1-1580,906.6,42.73,42.73,0,0,0-1577.88,914.9Zm-63.09-24a36.53,36.53,0,0,0,10.2,5.57,66.94,66.94,0,0,0,21.47,3.5,76.39,76.39,0,0,0,21.67-3.25c1.16-.34,2.24-.69,3.27-1a1011.56,1011.56,0,0,0-35.43,108.41A1027.76,1027.76,0,0,0-1641,890.86ZM-1747,1002.93c9.44-9.46,15.86-21.43,19.79-33.92a104,104,0,0,0,5-30.57,71.43,71.43,0,0,0-1.47-14.77,1212.51,1212.51,0,0,1,92.15,96.49c-11.44-1.61-29.87-3.2-54.51-4.4-20.88-1-46.2-1.76-75.33-2A64,64,0,0,0-1747,1002.93Zm-34,18.78a54.06,54.06,0,0,1,15.85,11.55,81.33,81.33,0,0,1,13.87,19.82,64.8,64.8,0,0,1,6.94,29.27,63.89,63.89,0,0,1-2.31,17.08,3.73,3.73,0,0,0-.14.92,1112.91,1112.91,0,0,0-88.5,72.43c5-17.78,7.37-37.2,7.85-54.88,0-1.06,0-2.12,0-3.18a123.2,123.2,0,0,0-13.4-55.81,103.13,103.13,0,0,0-29.64-35.68C-1838.11,1022.17-1808.16,1021.72-1781.08,1021.71Zm-103.14,2a3.9,3.9,0,0,0,.69.52c15.33,8.82,27.34,22.4,35.53,38.34a115.12,115.12,0,0,1,12.52,52.15c0,1,0,2,0,3-.55,21.32-4.1,45.38-11.48,65.1h0s0,0,0,0a3.83,3.83,0,0,0-.19.72s0,.08,0,.12c-30.83,28.72-60.2,59.07-88.13,90.67a207.76,207.76,0,0,0,2-29.37c0-39.46-10-80.63-25.23-114.12a217.1,217.1,0,0,0-40.87-60.94,192.68,192.68,0,0,0-47.26-36C-1988.16,1028.77-1933.54,1025.54-1884.22,1023.71ZM-2079.89,1302c-19.51-52.91-52.32-99.93-90.18-141.26-36.25-39.57-76.77-71.66-124.51-95.22,81.54-13.72,160-23.46,232.69-30.21a184.33,184.33,0,0,1,56.69,40.15,209.19,209.19,0,0,1,39.36,58.7c14.77,32.43,24.52,72.71,24.51,110.81a190.86,190.86,0,0,1-4.1,40.45,3.31,3.31,0,0,0-.07.55c-34.13,39.47-66.08,80.77-95.91,123.16q-11.4,16.21-22.49,32.71a234.75,234.75,0,0,0,3.11-38.43C-2060.79,1369-2067.9,1334.49-2079.89,1302Zm350.38,416.45c-30.2-35.67-71.06-64.41-115.21-84.29s-91.59-30.89-135.12-30.9q-11.1,0-21.84,1c-68.31,6.24-132.6,34.73-187.82,74.09a1792.25,1792.25,0,0,1,116.3-207.9,3.93,3.93,0,0,0,1.73-.59c42.65-26.68,93.46-40.41,144-40.41a275.2,275.2,0,0,1,48.09,4.21c29.82,5.31,58.69,15.61,86.39,28.36,27.22,12.53,54.48,27.79,78,46.58,22.68,18.11,41.85,39.47,54.41,64.82-5.91,51.79-12.47,104-19.63,155.27q-4.2,30.13-8.68,59.74C-1697.62,1763-1711.7,1739.49-1729.51,1718.45Zm420.58-53.63c-21.45-9.08-43.68-16.35-67.26-19.62a315.88,315.88,0,0,0-43.4-3c-52.05,0-105.1,12.44-150.5,36.72-25.76,13.78-48.26,31.7-68.4,52a459.42,459.42,0,0,0-40.79,47.73c9.79-65.71,18.6-133.67,26.32-201l.37-.34.14-.16a3.5,3.5,0,0,0,.42-.57h0q3.3-5.59,6.91-11c23.24-34.75,55.63-63.29,92.66-83.65,40.86-22.47,87.34-35,133.27-35q6,0,11.88.28l.42,0c6.31.31,12.61.89,18.83,1.81,2.07.31,4.14.65,6.19,1a146.49,146.49,0,0,1,14.54,3.46,107.59,107.59,0,0,1,35,17.26l.14.09c.11.08.23.15.35.22h0q22.59,49.88,41,101.75c13.58,38.35,25.06,77.65,35.07,117.56C-1273.11,1681.51-1290.74,1672.51-1308.93,1664.82Zm442.19-199.94c-28.28,0-56.59,5.85-83.91,16.06-41,15.31-79.73,40.4-112.94,70.42s-60.84,65-79.52,100.22c-19,35.77-32.69,73.81-44.15,112.52-9.43,31.88-17.32,64.22-25.28,96.15-9.28-53.45-19.59-106.75-32.3-159.16a3.94,3.94,0,0,0,.64-1.83c5.25-56.76,15.82-116.59,36-172s50-106.34,93.61-145.56a160.68,160.68,0,0,1,48.72-30.64,167.6,167.6,0,0,1,49.53-11c69.13,43.42,133,86.79,191.77,129.38A193.5,193.5,0,0,0-866.74,1464.88Zm204.89-75.72A559.87,559.87,0,0,0-628.3,1580.7c.44,1.21,1.12,3.28,1.95,5.9,1.46,4.58,3.41,10.88,5.66,17.78,2.3,7.06,4.91,14.73,7.63,21.91-45.53-39.3-96-80.34-151.57-122.41q-16.18-12.26-33-24.62a3.66,3.66,0,0,0-.48-1c-45.16-67.37-67.81-151.87-67.81-233.92a437.17,437.17,0,0,1,2.62-47.9c6.12-55.2,23.69-102.77,52.07-142.6C-783.7,1015.24-746,983.88-698.53,960q32.06-.51,64-.52c60.2,0,120.28,1.4,180.74,4.5-16,11.06-31.52,25.13-45.09,37.7-54.2,50.21-95,111.14-122.15,177.47S-661.85,1317.26-661.85,1389.16Z" transform="translate(2322.98 -885.43)"/></g></svg>